<svg width="535" height="316" viewBox="0 0 535 316" fill="none" xmlns="http://www.w3.org/2000/svg">
<path d="M304.78 266.13L431.46 160.57L224.34 117.51L110.5 222.63L304.78 266.13ZM226.45 125.13L353.96 151.64L290.6 204.39L167.83 179.26L226.45 125.13ZM292.45 211.91L362.67 153.46L415.81 164.51L302.9 258.59L125.02 218.76L161.46 185.11L292.45 211.91Z" fill="#5746AF"/>
<path d="M324.9 315.67L534.3 141.81L527.49 75.33L191.22 0L0.390015 180.65L7.39001 249.21L324.9 315.67ZM521.04 81.08L526.66 135.92L204.12 68.48L196.39 8.34999L521.04 81.08ZM202.04 75.19L522.78 142.27L323.03 308.13L18.03 244.27L202.04 75.19ZM7.73999 183.37L189.74 11.12L197.31 70.03L13.4601 239.03L7.73999 183.37Z" fill="#5746AF"/>
<path d="M204.571 68.0534L196.977 8.99385L520.579 81.4892L526.093 135.291L204.571 68.0534Z" fill="#5746AF" stroke="#F0E7F3"/>
<path d="M196.731 69.837L13.8058 237.967L8.23256 183.564L189.319 12.1592L196.731 69.837Z" fill="#5746AF" stroke="#F0E7F3"/>
<path d="M323.03 308.13L522.78 142.27L201.98 75.19L17.98 244.27L323.03 308.13ZM224.34 117.51L431.46 160.57L304.78 266.13L110.5 222.63L224.34 117.51Z" fill="#F0E7F3"/>
<path d="M292.39 212.36L292.625 212.408L292.81 212.254L362.845 153.959L414.734 164.749L302.809 258.008L126.1 218.44L161.651 185.611L292.39 212.36Z" fill="#5746AF" stroke="#F0E7F3"/>
</svg>
