<svg width="240" height="305" viewBox="0 0 240 305" fill="none" xmlns="http://www.w3.org/2000/svg">
<path d="M0.360104 73.33C0.333462 83.6179 2.51946 93.7912 6.77002 103.16L6.82007 103.28L99.04 258.28C102.505 267.413 107.782 275.751 114.555 282.79C121.327 289.829 129.455 295.425 138.447 299.24C147.44 303.054 157.112 305.01 166.88 304.987C176.648 304.965 186.311 302.966 195.286 299.11C204.261 295.254 212.362 289.621 219.103 282.551C225.843 275.48 231.082 267.119 234.505 257.97C237.928 248.821 239.464 239.074 239.019 229.316C238.575 219.557 236.16 209.99 231.92 201.19L231.57 200.56C230.85 199.08 230.05 197.63 229.23 196.2L137.41 40.81C130.085 26.2589 118.067 14.6038 103.298 7.7294C88.5284 0.854988 71.8722 -0.836814 56.0225 2.92758C40.1727 6.69197 26.056 15.6925 15.9551 28.4736C5.8542 41.2548 0.359737 57.0693 0.360104 73.36V73.33ZM223.06 199.52L225.46 203.95C233.099 219.436 234.358 237.301 228.966 253.705C223.574 270.109 211.962 283.743 196.625 291.677C181.288 299.61 163.451 301.21 146.947 296.133C130.442 291.056 116.589 279.706 108.364 264.523C100.138 249.341 98.1976 231.537 102.959 214.939C107.72 198.341 118.803 184.273 133.825 175.759C148.848 167.245 166.611 164.964 183.297 169.408C199.983 173.851 214.261 184.663 223.06 199.52ZM131.18 43.97L209.38 174.17C198.595 166.269 185.83 161.512 172.505 160.426C159.179 159.34 145.814 161.968 133.891 168.019C121.969 174.07 111.957 183.306 104.966 194.703C97.9757 206.099 94.2802 219.21 94.29 232.58C94.29 233.38 94.2901 234.18 94.3501 234.98L13.1001 100.16C6.09966 84.5656 5.48299 66.8501 11.3821 50.8067C17.2812 34.7632 29.227 21.6669 44.6621 14.3219C60.0972 6.97691 77.7948 5.96695 93.9653 11.5083C110.136 17.0496 123.494 28.7018 131.18 43.97Z" fill="#5746AF"/>
<path d="M166.69 167.19C178.089 167.197 189.288 170.185 199.176 175.856C209.064 181.527 217.298 189.685 223.06 199.52L225.46 203.95C231.674 216.713 233.565 231.152 230.848 245.086C228.13 259.019 220.952 271.689 210.397 281.182C199.842 290.674 186.484 296.474 172.342 297.704C158.2 298.934 144.041 295.528 132.006 288C119.971 280.472 110.713 269.231 105.631 255.977C100.548 242.722 99.9181 228.173 103.835 214.529C107.753 200.884 116.004 188.885 127.344 180.345C138.683 171.805 152.494 167.187 166.69 167.19Z" fill="#F2CFFF"/>
<path d="M72.7804 8.44005L72.7815 8.44004C84.8153 8.40429 96.6201 11.7295 106.866 18.0411C117.112 24.3527 125.392 33.4 130.773 44.1636L130.781 44.1809L130.791 44.1975L207.766 172.357C197.332 165.227 185.209 160.926 172.586 159.897C159.168 158.804 145.71 161.451 133.705 167.543C121.7 173.636 111.619 182.936 104.58 194.411C97.5412 205.887 93.8202 219.088 93.8301 232.55V232.557C93.8301 232.721 93.8301 232.887 93.8306 233.053L13.584 99.8979C9.161 90.0231 7.27612 79.1993 8.10108 68.4104C8.9268 57.6115 12.4411 47.1908 18.3239 38.0973C24.2066 29.0038 32.2709 21.5266 41.7823 16.3466C51.2937 11.1667 61.95 8.44866 72.7804 8.44005Z" fill="#5746AF" stroke="#F0E7F3"/>
</svg>
